# xmcd CD database file
#
# Track frame offsets:
#	150
#	17317
#	33801
#	49200
#	68562
#	88124
#	105941
#	124166
#	143904
#	157440
#
# Disc length: 2335 seconds
#
# Revision: 0
# Processed by: cddbd v1.5.1PL0 Copyright (c) Steve Scherf et al.
# Submitted via: CDex 1.51
#
DISCID=7c091d0a
DTITLE=David Dee - Going Fishing
DYEAR=2000
DGENRE=Blues
TTITLE0=Going Fishing
TTITLE1=Sweet Lovin' Baby
TTITLE2=Blues
TTITLE3=Back In Your Arms
TTITLE4=Blues Jam
TTITLE5=Just One Step
TTITLE6=Since I've Been Lovin' You
TTITLE7=Give Me Some Air
TTITLE8=So Blue
TTITLE9=Keep On Doing What You Do
EXTD=YEAR: 2000
EXTT0=
EXTT1=
EXTT2=
EXTT3=
EXTT4=
EXTT5=
EXTT6=
EXTT7=
EXTT8=
EXTT9=
PLAYORDER=
